<svg xmlns="http://www.w3.org/2000/svg" viewBox="0 0 156.33 125.5"><defs><style>.cls-1{fill:#e63643;}</style></defs><g id="Layer_2" data-name="Layer 2"><g id="Layer_1-2" data-name="Layer 1"><path class="cls-1" d="M105.39,43.71c-3.46.11-6.91.24-10.36.31l.3-.24L93.18,53.87,91,64l-.77,3.57-.78-3.6L85.62,46.28,81.86,28.63l2.55-.05L81.12,50.07,77.73,71.55,76.12,81.76,74.77,71.51,71.92,50,69.17,28.54l2.57.08L68.08,46.28,64.34,63.92l-.68,3.2L62.79,64,59.94,53.9,57.11,43.8l.3.22c-3.43-.07-6.86-.2-10.29-.31,3.43-.11,6.86-.24,10.29-.31h.23l.07.23,3.32,10,3.29,10-1.55.08,3.16-17.75,3.26-17.74,1.44-7.86,1.12,7.94,3,21.45,2.95,21.46-3,0,3.49-21.46,3.59-21.44L83.05,21l1.35,7.14,3.35,17.73L91,63.61l-1.56,0,2.63-10,2.63-10,.07-.25H95C98.48,43.47,101.93,43.6,105.39,43.71Z"/><path class="cls-1" d="M8.3,125.26l-5-9.31v8.28a.68.68,0,0,0,.14.46A1,1,0,0,0,4,125v.31H0V125a1,1,0,0,0,.49-.26.63.63,0,0,0,.14-.46V112.81a.65.65,0,0,0-.14-.46,1.05,1.05,0,0,0-.49-.26v-.31H5.2v.31a.54.54,0,0,0-.47.55,1,1,0,0,0,.14.45l3.68,7,3.73-6.85a1.72,1.72,0,0,0,.25-.66c0-.27-.17-.42-.5-.46v-.31h5.1v.31a1.11,1.11,0,0,0-.49.26.7.7,0,0,0-.14.46v11.42a.68.68,0,0,0,.14.46,1,1,0,0,0,.49.26v.31H12.92V125a.94.94,0,0,0,.49-.25.68.68,0,0,0,.15-.47V116Z"/><path class="cls-1" d="M29.43,121.83H23.3l-.91,1.89a1.65,1.65,0,0,0-.18.63q0,.44.66.6v.31H18.41V125a1.2,1.2,0,0,0,.6-.28,2.52,2.52,0,0,0,.47-.77l5-10.36a2,2,0,0,0,.24-.79c0-.31-.19-.52-.57-.66v-.31h4.78v.31c-.39.12-.58.31-.58.59a1.49,1.49,0,0,0,.18.65l5.14,10.39a3.49,3.49,0,0,0,.58.91,1.21,1.21,0,0,0,.66.32v.31h-5V125c.44-.07.66-.28.66-.61a1.64,1.64,0,0,0-.2-.62ZM28.58,120l-2.18-4.81L24.18,120Z"/><path class="cls-1" d="M48.07,120.63l1.87,2.81-.25.18a.81.81,0,0,0-.46-.26,3.52,3.52,0,0,0-1,.48,13.94,13.94,0,0,1-2.86,1.32,9.73,9.73,0,0,1-2.76.34A8.55,8.55,0,0,1,37.38,124a6.31,6.31,0,0,1-1.9-2.18,6.9,6.9,0,0,1-.8-3.29,6.66,6.66,0,0,1,1.43-4.26q2.16-2.72,6.51-2.72a9.61,9.61,0,0,1,2.75.34,13.59,13.59,0,0,1,2.86,1.32,3.49,3.49,0,0,0,1,.46.78.78,0,0,0,.46-.25l.25.18-1.87,2.81-.27-.18c0-.1,0-.19,0-.26a.75.75,0,0,0-.25-.54,4.15,4.15,0,0,0-.88-.6,7.38,7.38,0,0,0-3.7-1A5.57,5.57,0,0,0,39.3,115a4.66,4.66,0,0,0,0,7.06A5.57,5.57,0,0,0,43,123.21a7.38,7.38,0,0,0,3.7-1,4.1,4.1,0,0,0,.88-.61.72.72,0,0,0,.25-.54c0-.07,0-.15,0-.25Z"/><path class="cls-1" d="M63.12,119.38H55.35v4.86a.72.72,0,0,0,.14.46A1,1,0,0,0,56,125v.31H51.77V125a1.06,1.06,0,0,0,.5-.26.67.67,0,0,0,.13-.45V112.81a.7.7,0,0,0-.13-.46,1.15,1.15,0,0,0-.5-.26v-.31H56v.31a.9.9,0,0,0-.49.26.63.63,0,0,0-.14.46v4.34h7.77v-4.34a.68.68,0,0,0-.13-.46,1,1,0,0,0-.5-.26v-.31H66.7v.31a1.05,1.05,0,0,0-.49.26.65.65,0,0,0-.14.46v11.43a.62.62,0,0,0,.14.45,1,1,0,0,0,.49.26v.31H62.49V125a1,1,0,0,0,.49-.25.67.67,0,0,0,.14-.46Z"/><path class="cls-1" d="M72.71,119.76v4.48a.67.67,0,0,0,.14.46,1,1,0,0,0,.49.25v.31H69.13V125a1.06,1.06,0,0,0,.5-.26.67.67,0,0,0,.13-.45V112.81a.7.7,0,0,0-.13-.46,1.15,1.15,0,0,0-.5-.26v-.31h8.44A13,13,0,0,1,80,112a4.12,4.12,0,0,1,1.58.62A3.18,3.18,0,0,1,82.76,114a4.62,4.62,0,0,1,.36,1.82q0,3.3-3.66,3.86l2.61,3.73a8.71,8.71,0,0,0,1,1.26,1.3,1.3,0,0,0,.78.31v.31H79V125c.33,0,.5-.17.5-.36a2.5,2.5,0,0,0-.46-.86l-2.73-4Zm0-2.22h4.54a11.64,11.64,0,0,0,1.43-.06,2.2,2.2,0,0,0,.76-.25,1.8,1.8,0,0,0,0-2.92,2.06,2.06,0,0,0-.76-.25,11.3,11.3,0,0,0-1.43-.06H72.71Z"/><path class="cls-1" d="M92.65,111.54a8,8,0,0,1,5.6,1.91,7,7,0,0,1,1.13,8.77q-2,3.28-6.71,3.28a7.87,7.87,0,0,1-5.57-1.91,6.75,6.75,0,0,1-1.68-2.44,7.07,7.07,0,0,1-.5-2.63,7,7,0,0,1,1-3.71Q87.94,111.6,92.65,111.54Zm0,2.29A4.61,4.61,0,0,0,89.45,115a4.86,4.86,0,0,0,0,7.08,5.1,5.1,0,0,0,6.45,0,4.47,4.47,0,0,0,1.17-1.66,4.76,4.76,0,0,0,.36-1.82A4.48,4.48,0,0,0,95.9,115,4.87,4.87,0,0,0,92.66,113.83Z"/><path class="cls-1" d="M105.88,116v8.2a.68.68,0,0,0,.13.46,1.06,1.06,0,0,0,.5.26v.31h-4V125a1,1,0,0,0,.5-.26.68.68,0,0,0,.14-.46V112.81a.7.7,0,0,0-.14-.46,1.1,1.1,0,0,0-.5-.26v-.31h4.59v.31c-.28.08-.42.23-.42.46a.8.8,0,0,0,.27.52l7.44,7.74v-8a.65.65,0,0,0-.14-.46,1.05,1.05,0,0,0-.49-.26v-.31h4v.31a1.05,1.05,0,0,0-.49.26.65.65,0,0,0-.14.46v11.42a.63.63,0,0,0,.14.46,1,1,0,0,0,.49.26v.31H113.5V125c.28-.06.42-.2.42-.43s-.16-.36-.49-.69Z"/><path class="cls-1" d="M120.81,124.23V112.81a.65.65,0,0,0-.14-.46,1.05,1.05,0,0,0-.49-.26v-.31h4.21v.31a.9.9,0,0,0-.49.26.63.63,0,0,0-.14.46v11.42a.73.73,0,0,0,.14.47,1,1,0,0,0,.49.25v.31h-4.21V125a1,1,0,0,0,.49-.26A.63.63,0,0,0,120.81,124.23Z"/><path class="cls-1" d="M139.88,120.63l1.88,2.81-.26.18a.76.76,0,0,0-.45-.26,3.52,3.52,0,0,0-1,.48,14.19,14.19,0,0,1-2.86,1.32,9.73,9.73,0,0,1-2.76.34,8.58,8.58,0,0,1-5.24-1.51,6.52,6.52,0,0,1-1.9-2.18,6.89,6.89,0,0,1-.79-3.29,6.6,6.6,0,0,1,1.43-4.26q2.15-2.72,6.51-2.72a9.53,9.53,0,0,1,2.74.34,13.63,13.63,0,0,1,2.87,1.32,3.49,3.49,0,0,0,1,.46.73.73,0,0,0,.45-.25l.26.18-1.88,2.81-.26-.18c0-.1,0-.19,0-.26a.79.79,0,0,0-.25-.54,4.44,4.44,0,0,0-.88-.6,7.42,7.42,0,0,0-3.71-1,5.52,5.52,0,0,0-3.68,1.16,4.66,4.66,0,0,0,0,7.06,5.52,5.52,0,0,0,3.68,1.16,7.42,7.42,0,0,0,3.71-1,4.39,4.39,0,0,0,.88-.61.76.76,0,0,0,.25-.54c0-.07,0-.15,0-.25Z"/><path class="cls-1" d="M156.33,112.92l-1.61,3.18-.27-.16c0-.07,0-.12,0-.16,0-.22-.2-.47-.58-.72a7,7,0,0,0-4.13-1.23,6.12,6.12,0,0,0-1.85.26,2.26,2.26,0,0,0-.94.59,1.25,1.25,0,0,0-.36.86c0,.51.31.85.92,1a14,14,0,0,0,2,.29l1.56.16a12,12,0,0,1,2.23.41,5.21,5.21,0,0,1,1.52.72,3.3,3.3,0,0,1,1.06,1.27,3.91,3.91,0,0,1-.53,4.22,5,5,0,0,1-2.57,1.49,10.53,10.53,0,0,1-2.8.36,11.94,11.94,0,0,1-5.29-1.28,3,3,0,0,0-.66-.26.79.79,0,0,0-.4.22l-.29-.15,1.46-3.31.29.14V121a1.1,1.1,0,0,0,.42.82,5.33,5.33,0,0,0,2,1,8.49,8.49,0,0,0,2.55.42,5.26,5.26,0,0,0,2.24-.44,2.26,2.26,0,0,0,.82-.66,1.44,1.44,0,0,0,.31-.85,1,1,0,0,0-.72-1,9.8,9.8,0,0,0-2-.36l-1.52-.16q-1.53-.16-2.16-.3a5.71,5.71,0,0,1-1.27-.46,3.31,3.31,0,0,1-1.41-1.34,3.6,3.6,0,0,1-.47-1.84,3.76,3.76,0,0,1,1.18-2.83,6.47,6.47,0,0,1,4.62-1.47,10.73,10.73,0,0,1,2.41.26,18.48,18.48,0,0,1,2.79,1,3.29,3.29,0,0,0,.7.23.86.86,0,0,0,.49-.23Z"/><path class="cls-1" d="M76.25,99.68c-.57,0-1.15,0-1.71,0l-.91,0-.39-.82a45.18,45.18,0,0,1-1.85-5c-.32-1-.67-2.08-1-3A43.13,43.13,0,0,1,66,89.87c-.71.77-1.47,1.65-2.2,2.51a47.31,47.31,0,0,1-3.52,3.83l-.68.62-.86-.32c-1-.37-2-.79-3.08-1.29l-.84-.38,0-.92A47.4,47.4,0,0,1,55,88.64c.09-1.14.18-2.25.22-3.25a40.84,40.84,0,0,1-3.72-2.49c-.94.42-1.95.94-2.94,1.44a48.87,48.87,0,0,1-4.78,2.22l-.87.31-.67-.63c-.81-.76-1.61-1.55-2.36-2.36l-.63-.67.31-.86a45.73,45.73,0,0,1,2.22-4.77c.51-1,1-2,1.45-3a40.42,40.42,0,0,1-2.5-3.73c-1,0-2.13.13-3.22.22a48,48,0,0,1-5.31.22l-.91,0-.38-.83c-.49-1.07-.92-2.08-1.3-3.08l-.32-.87.62-.68a48.66,48.66,0,0,1,3.82-3.51c.87-.74,1.76-1.5,2.53-2.21a40.56,40.56,0,0,1-.87-4.39c-1-.35-2-.69-3-1a43.56,43.56,0,0,1-5-1.86l-.82-.39,0-.9c0-.57,0-1.14,0-1.72s0-1.15,0-1.72l0-.9.82-.4a47.37,47.37,0,0,1,5-1.85c1.06-.34,2.1-.68,3-1a39.63,39.63,0,0,1,.87-4.39c-.79-.73-1.7-1.5-2.51-2.2a46.06,46.06,0,0,1-3.84-3.52l-.62-.68.32-.86c.38-1,.8-2,1.3-3.09l.38-.83.91,0a45.19,45.19,0,0,1,5.29.22c1.13.09,2.25.18,3.25.21a39.38,39.38,0,0,1,2.49-3.71c-.43-.94-.94-1.95-1.44-2.93a45.52,45.52,0,0,1-2.22-4.8l-.32-.86.63-.67c.76-.81,1.55-1.6,2.36-2.36l.67-.63.87.31a47.67,47.67,0,0,1,4.77,2.21c1,.51,2,1,2.95,1.45a43,43,0,0,1,3.72-2.49c0-1-.13-2.1-.21-3.17a47.23,47.23,0,0,1-.23-5.36l0-.92.84-.38c1.07-.49,2.08-.91,3.08-1.29l.86-.32.68.62A48.77,48.77,0,0,1,63.77,7.3c.7.82,1.48,1.73,2.21,2.51,1.43-.36,2.9-.65,4.38-.87.36-1,.72-2.09,1-3A45.19,45.19,0,0,1,73.24.89l.39-.82.9,0c1.14,0,2.3,0,3.44,0l.91,0,.39.82a46,46,0,0,1,1.85,5.05c.34,1,.68,2.07,1,3,1.49.22,3,.51,4.39.87C87.26,9,88,8.12,88.73,7.3a50.78,50.78,0,0,1,3.52-3.83l.68-.62.87.32c1,.38,2,.8,3.08,1.29l.83.38.05.92A44.76,44.76,0,0,1,97.53,11c-.08,1.14-.17,2.27-.21,3.28A44.62,44.62,0,0,1,101,16.78c.94-.43,2-.94,2.95-1.45a47.67,47.67,0,0,1,4.77-2.21l.86-.31.67.63c.81.76,1.61,1.55,2.37,2.36l.62.67-.31.86a46.76,46.76,0,0,1-2.21,4.78c-.51,1-1,2-1.45,2.95a40.17,40.17,0,0,1,2.49,3.72c1,0,2.2-.14,3.24-.22a45.1,45.1,0,0,1,5.29-.22l.92,0,.38.83c.5,1.1.92,2.1,1.29,3.09l.32.86-.62.68a48.66,48.66,0,0,1-3.82,3.51c-.88.75-1.76,1.5-2.52,2.21a42.07,42.07,0,0,1,.87,4.39c.92.34,1.95.68,2.95,1a47.23,47.23,0,0,1,5.1,1.87l.83.4,0,.9c0,.57,0,1.15,0,1.72s0,1.15,0,1.72l0,.9-.83.39a44.11,44.11,0,0,1-5,1.84c-1.06.35-2.12.69-3.06,1a42.07,42.07,0,0,1-.87,4.39c.76.71,1.64,1.46,2.49,2.19a46.17,46.17,0,0,1,3.85,3.53l.63.68-.33.86c-.37,1-.79,2-1.29,3.09l-.38.83-.91,0a44.86,44.86,0,0,1-5.26-.22c-1.14-.09-2.27-.18-3.28-.22a40.32,40.32,0,0,1-2.49,3.73c.44,1,1,2,1.45,3A44.45,44.45,0,0,1,113,82.35l.31.86-.63.67c-.76.82-1.56,1.62-2.36,2.36l-.67.63-.86-.31A44.36,44.36,0,0,1,104,84.35c-1-.5-2-1-3-1.45a42.28,42.28,0,0,1-3.72,2.49c0,1,.12,2.13.21,3.22a46.3,46.3,0,0,1,.23,5.31l-.05.92-.83.38c-1.09.5-2.1.92-3.08,1.29l-.87.32-.68-.62a48.77,48.77,0,0,1-3.52-3.83c-.7-.82-1.47-1.73-2.2-2.51a43.13,43.13,0,0,1-4.39.87c-.34.93-.68,2-1,3a46.69,46.69,0,0,1-1.86,5.06l-.39.82-.91,0C77.4,99.67,76.83,99.68,76.25,99.68Zm-.67-3h1.34c.46-1.13.91-2.52,1.35-3.86s.86-2.63,1.31-3.79L80,88l1.11-.14a38.84,38.84,0,0,0,5.28-1l1.08-.29.78.8c.91.94,1.9,2.1,2.77,3.12s1.79,2.09,2.61,2.93l1.15-.49c0-1.18-.12-2.6-.23-4s-.22-2.84-.24-4.1l0-1.12,1-.56a37.61,37.61,0,0,0,4.48-3l.88-.69,1,.45c1.17.51,2.51,1.19,3.69,1.79s2.5,1.27,3.59,1.73l.88-.88c-.46-1.09-1.1-2.35-1.72-3.58s-1.28-2.52-1.8-3.71l-.44-1,.69-.89a38.24,38.24,0,0,0,3-4.47l.56-1,1.12,0c1.26,0,2.68.13,4.05.24s2.84.22,4,.23c.17-.39.33-.77.48-1.15-.84-.82-1.89-1.72-2.92-2.6s-2.2-1.88-3.13-2.78l-.8-.78.29-1.08a38.39,38.39,0,0,0,1.05-5.27l.14-1.12,1-.41c1.16-.46,2.49-.89,3.78-1.31s2.75-.9,3.86-1.35c0-.23,0-.45,0-.67s0-.44,0-.67c-1.13-.46-2.51-.91-3.86-1.35s-2.65-.86-3.78-1.31l-1-.41L114.26,45a37.94,37.94,0,0,0-1-5.26l-.3-1.08.8-.78c.93-.9,2-1.85,3.1-2.77s2.11-1.8,3-2.62c-.15-.37-.31-.76-.48-1.15-1.21,0-2.63.12-4,.23s-2.77.22-4.06.24l-1.12,0-.56-1a38.24,38.24,0,0,0-3-4.47l-.69-.89.44-1c.5-1.16,1.15-2.43,1.78-3.67s1.26-2.5,1.74-3.61c-.29-.3-.58-.6-.88-.89-1.1.47-2.36,1.11-3.58,1.73s-2.53,1.28-3.71,1.79l-1,.44-.88-.68a38.86,38.86,0,0,0-4.48-3l-1-.56V14.89c0-1.27.13-2.69.24-4.06s.22-2.83.23-4l-1.15-.49c-.82.84-1.72,1.9-2.61,2.93s-1.86,2.18-2.77,3.12l-.79.8-1.07-.29a38.39,38.39,0,0,0-5.27-1.05L80,11.69l-.41-1c-.45-1.14-.89-2.47-1.3-3.75S77.38,4.13,76.92,3H75.58c-.45,1.12-.91,2.51-1.34,3.85-.38,1.16-.85,2.59-1.32,3.78l-.41,1-1.11.14a38.1,38.1,0,0,0-5.27,1.05l-1.08.29-.78-.8c-.92-.94-1.91-2.1-2.78-3.12S59.7,7.16,58.88,6.32l-1.15.49c0,1.19.13,2.62.23,4s.22,2.83.25,4.07V16l-1,.56a38,38,0,0,0-4.48,3l-.88.68-1-.44c-1.17-.5-2.45-1.15-3.68-1.78s-2.52-1.27-3.61-1.74l-.89.89c.47,1.08,1.1,2.33,1.72,3.55s1.3,2.57,1.8,3.74l.45,1-.69.89a38.32,38.32,0,0,0-3,4.47l-.55,1-1.12,0c-1.25,0-2.65-.13-4-.23s-2.88-.23-4.08-.24c-.17.39-.33.78-.48,1.15.82.81,1.87,1.7,2.89,2.57s2.21,1.9,3.15,2.81l.8.79-.29,1.08a38.1,38.1,0,0,0-1,5.27l-.13,1.11-1.06.42c-1.13.44-2.44.87-3.71,1.28s-2.79.91-3.93,1.37v1.34c1.12.45,2.49.9,3.83,1.34s2.65.86,3.82,1.32l1,.41.13,1.12a39,39,0,0,0,1,5.27l.29,1.08-.8.77c-.93.91-2,1.86-3.12,2.78s-2.09,1.79-2.92,2.61c.15.38.31.76.48,1.15,1.2,0,2.62-.12,4-.23s2.82-.22,4.08-.24l1.12,0,.55,1a37.5,37.5,0,0,0,3,4.47l.69.89-.45,1c-.5,1.16-1.15,2.44-1.77,3.68s-1.28,2.51-1.75,3.6l.89.89c1.09-.47,2.35-1.1,3.58-1.73s2.54-1.28,3.71-1.79l1-.44.88.68a37.5,37.5,0,0,0,4.47,3l1,.56V84.8c0,1.24-.13,2.64-.24,4s-.22,2.89-.24,4.08l1.15.49c.81-.84,1.71-1.88,2.59-2.9s1.89-2.22,2.8-3.15l.77-.8,1.08.29a38.84,38.84,0,0,0,5.28,1l1.11.14.41,1c.47,1.19.92,2.57,1.32,3.79S75.13,95.55,75.58,96.68Z"/></g></g></svg>